<?xml version="1.0" encoding="UTF-8" standalone="no"?><!DOCTYPE svg PUBLIC "-//W3C//DTD SVG 1.1//EN" "http://www.w3.org/Graphics/SVG/1.1/DTD/svg11.dtd"><svg width="100%" height="100%" viewBox="0 0 296 296" version="1.1" xmlns="http://www.w3.org/2000/svg" xmlns:xlink="http://www.w3.org/1999/xlink" xml:space="preserve" xmlns:serif="http://www.serif.com/" style="fill-rule:evenodd;clip-rule:evenodd;stroke-linejoin:round;stroke-miterlimit:2;"><path d="M94.599,188.683c3.449,0 6.25,2.801 6.25,6.25l0,28.121l36.805,-32.788c0.585,-0.521 1.241,-0.912 1.933,-1.175c0.691,-0.264 1.441,-0.408 2.225,-0.408l63.117,0c14.345,0 25.991,-11.646 25.991,-25.991l0,-64.481c0,-14.345 -11.646,-25.991 -25.991,-25.991l-114.582,0c-14.345,0 -25.991,11.646 -25.991,25.991l0,64.481c0,14.345 11.646,25.991 25.991,25.991l4.252,0Zm53.038,-106.266c5.825,0 10.553,4.729 10.553,10.553c0,5.825 -4.729,10.553 -10.553,10.553c-5.825,0 -10.553,-4.729 -10.553,-10.553c0,-5.825 4.729,-10.553 10.553,-10.553Zm-8.333,45.407l-4.365,0c-4.599,0 -8.333,-3.734 -8.333,-8.333c-0,-4.599 3.734,-8.333 8.333,-8.333l12.699,0c4.599,0 8.333,3.734 8.333,8.333l0,39.903l4.365,0c4.599,0 8.333,3.734 8.333,8.333c-0,4.599 -3.734,8.333 -8.333,8.333l-25.397,0c-4.599,0 -8.333,-3.734 -8.333,-8.333c-0,-4.599 3.734,-8.333 8.333,-8.333l4.365,0l0,-31.569Z"/></svg>