<?xml version="1.0" encoding="UTF-8" standalone="no"?><!DOCTYPE svg PUBLIC "-//W3C//DTD SVG 1.1//EN" "http://www.w3.org/Graphics/SVG/1.1/DTD/svg11.dtd"><svg width="100%" height="100%" viewBox="0 0 296 296" version="1.1" xmlns="http://www.w3.org/2000/svg" xmlns:xlink="http://www.w3.org/1999/xlink" xml:space="preserve" xmlns:serif="http://www.serif.com/" style="fill-rule:evenodd;clip-rule:evenodd;stroke-linejoin:round;stroke-miterlimit:2;"><path d="M94.599,188.683c3.449,-0 6.25,2.801 6.25,6.25l0,28.121l36.805,-32.788c0.585,-0.521 1.241,-0.912 1.933,-1.175c0.691,-0.264 1.441,-0.408 2.225,-0.408l63.117,0c14.345,0 25.991,-11.646 25.991,-25.991l0,-64.481c0,-14.345 -11.646,-25.991 -25.991,-25.991l-114.582,0c-14.345,0 -25.991,11.646 -25.991,25.991l0,64.481c0,14.345 11.646,25.991 25.991,25.991l4.252,0Zm1.071,-24.14c-3.449,0 -6.25,-2.801 -6.25,-6.25c-0,-3.449 2.801,-6.25 6.25,-6.25l80.169,0c3.449,0 6.25,2.801 6.25,6.25c-0,3.449 -2.801,6.25 -6.25,6.25l-80.169,0Zm-0,-55.742c-3.449,-0 -6.25,-2.801 -6.25,-6.25c0,-3.449 2.801,-6.25 6.25,-6.25l105.466,0c3.449,-0 6.25,2.801 6.25,6.25c0,3.449 -2.801,6.25 -6.25,6.25l-105.466,0Zm0,27.871c-3.449,-0 -6.25,-2.801 -6.25,-6.25c0,-3.449 2.801,-6.25 6.25,-6.25l105.466,0c3.449,-0 6.25,2.801 6.25,6.25c0,3.449 -2.801,6.25 -6.25,6.25l-105.466,0Z"/></svg>