<?xml version="1.0" encoding="UTF-8" standalone="no"?><!DOCTYPE svg PUBLIC "-//W3C//DTD SVG 1.1//EN" "http://www.w3.org/Graphics/SVG/1.1/DTD/svg11.dtd"><svg width="100%" height="100%" viewBox="0 0 355 296" version="1.1" xmlns="http://www.w3.org/2000/svg" xmlns:xlink="http://www.w3.org/1999/xlink" xml:space="preserve" xmlns:serif="http://www.serif.com/" style="fill-rule:evenodd;clip-rule:evenodd;stroke-linejoin:round;stroke-miterlimit:2;"><path d="M47.142,58.94l0.006,-0.006c4.365,-4.147 10.266,-6.692 16.757,-6.692l226.521,0c6.491,0 12.391,2.545 16.757,6.692l0.006,0.006c4.666,4.435 7.575,10.701 7.575,17.64l0,142.116c0,6.939 -2.909,13.204 -7.575,17.64l-0.006,0.006c-4.365,4.147 -10.266,6.692 -16.757,6.692l-226.521,0c-6.49,0 -12.391,-2.545 -16.757,-6.692l-0.006,-0.006c-4.666,-4.435 -7.575,-10.7 -7.575,-17.64l0,-142.116c0,-6.939 2.909,-13.204 7.575,-17.64Zm254.531,13.942l-84.559,74.755l84.559,74.756c0.383,-1.164 0.59,-2.407 0.59,-3.698l0,-142.116c0,-1.291 -0.207,-2.534 -0.59,-3.698Zm-249.015,149.511l84.559,-74.756l-84.559,-74.755c-0.383,1.164 -0.59,2.407 -0.59,3.698l0,142.116c0,1.291 0.207,2.534 0.59,3.698Zm237.768,8.14c0.5,0 0.994,-0.031 1.478,-0.092l-84.227,-74.461l-10.975,9.703c-11.157,9.863 -27.916,9.863 -39.073,0l-10.975,-9.703l-84.227,74.461c0.484,0.06 0.977,0.092 1.478,0.092l226.521,0Zm-226.521,-165.791c-0.5,0 -0.994,0.031 -1.478,0.092l88.366,78.121l15.115,13.363c6.429,5.683 16.085,5.683 22.514,-0l15.115,-13.363l88.366,-78.121c-0.484,-0.06 -0.977,-0.092 -1.478,-0.092l-226.521,-0Z"/></svg>