<?xml version="1.0" encoding="UTF-8" standalone="no"?><!DOCTYPE svg PUBLIC "-//W3C//DTD SVG 1.1//EN" "http://www.w3.org/Graphics/SVG/1.1/DTD/svg11.dtd"><svg width="100%" height="100%" viewBox="0 0 355 296" version="1.1" xmlns="http://www.w3.org/2000/svg" xmlns:xlink="http://www.w3.org/1999/xlink" xml:space="preserve" xmlns:serif="http://www.serif.com/" style="fill-rule:evenodd;clip-rule:evenodd;stroke-linejoin:round;stroke-miterlimit:2;"><path d="M42.175,114.813c1.266,-2.504 2.952,-4.76 4.966,-6.675c0.055,-0.052 0.11,-0.103 0.166,-0.152l110.321,-97.543c11.157,-9.863 27.916,-9.863 39.073,0l110.321,97.543c0.056,0.05 0.112,0.101 0.166,0.152c2.014,1.915 3.7,4.171 4.966,6.675c1.667,3.296 2.608,7.021 2.608,10.965l0,142.116c0,6.939 -2.909,13.205 -7.575,17.64l-0.006,0.006c-4.366,4.147 -10.266,6.692 -16.757,6.692l-226.521,0c-6.491,0 -12.391,-2.545 -16.757,-6.692l-0.006,-0.006c-4.666,-4.435 -7.575,-10.701 -7.575,-17.64l0,-142.116c0,-3.943 0.941,-7.668 2.608,-10.965Zm146.247,-95.005c-6.429,-5.683 -16.085,-5.683 -22.514,0l-105.025,92.86l0.32,0.283l85.45,75.542l10.975,-9.703c11.157,-9.863 27.916,-9.863 39.073,-0l10.975,9.703l85.77,-75.825l-105.025,-92.86Zm-135.765,251.784l84.559,-74.755l-84.292,-74.52l-0.268,-0.237c-0.383,1.164 -0.589,2.407 -0.589,3.699l0,142.116c0,1.291 0.207,2.534 0.59,3.698Zm237.768,8.14c0.5,0 0.994,-0.031 1.478,-0.092l-88.366,-78.121l-15.115,-13.363c-6.429,-5.683 -16.085,-5.683 -22.514,0l-15.115,13.363l-88.366,78.121c0.484,0.06 0.977,0.092 1.478,0.092l226.521,0Zm11.248,-157.652l-84.561,74.757l84.559,74.755c0.383,-1.164 0.59,-2.407 0.59,-3.698l0,-142.116c0,-1.291 -0.207,-2.535 -0.589,-3.699Z"/></svg>