<?xml version="1.0" encoding="UTF-8" standalone="no"?><!DOCTYPE svg PUBLIC "-//W3C//DTD SVG 1.1//EN" "http://www.w3.org/Graphics/SVG/1.1/DTD/svg11.dtd"><svg width="100%" height="100%" viewBox="0 0 355 296" version="1.1" xmlns="http://www.w3.org/2000/svg" xmlns:xlink="http://www.w3.org/1999/xlink" xml:space="preserve" xmlns:serif="http://www.serif.com/" style="fill-rule:evenodd;clip-rule:evenodd;stroke-linejoin:round;stroke-miterlimit:2;"><g><path d="M95.529,202.906c-6.837,12.212 -9.299,23.928 -10.166,29.959c11.145,4.425 44.718,15.964 91.802,15.964c47.084,0 80.657,-11.538 91.802,-15.964c-0.867,-6.03 -3.329,-17.747 -10.166,-29.959l-0.003,-0.006c-10.507,-18.764 -31.458,-38.431 -72.658,-40.897l-0.007,-0c-2.891,-0.173 -5.88,-0.262 -8.969,-0.262c-3.089,0 -6.078,0.09 -8.969,0.262l-0.007,0c-41.2,2.466 -62.151,22.133 -72.658,40.897l-0.003,0.006Z"/><path d="M131.559,69.391c-4.678,-13.356 -17.402,-22.944 -32.347,-22.944c-18.909,0 -34.262,15.352 -34.262,34.262c0,18.909 15.352,34.262 34.262,34.262c7.745,0 14.893,-2.576 20.633,-6.916c-0.08,-1.241 -0.121,-2.492 -0.121,-3.753c0,-13.127 4.413,-25.232 11.834,-34.91Z"/><path d="M267.731,193.43c29.226,-1.638 50.195,-8.57 58.6,-11.814c-1.119,-6.977 -4.691,-21.341 -15.876,-33.512c-10.467,-11.389 -27.602,-20.634 -55.336,-20.634c-10.458,0 -19.424,1.304 -27.107,3.56c-4.595,8.717 -11.366,16.11 -19.589,21.457c31.042,6.966 48.932,24.076 59.309,40.943Z"/><path d="M99.213,127.47c-27.735,0 -44.87,9.244 -55.336,20.634c-11.185,12.171 -14.758,26.536 -15.876,33.513c8.404,3.244 29.374,10.176 58.6,11.814c10.376,-16.867 28.267,-33.977 59.309,-40.943c-8.223,-5.347 -14.994,-12.741 -19.589,-21.457c-7.683,-2.256 -16.649,-3.56 -27.107,-3.56Z"/><path d="M211.116,74.869c-8.243,-9.497 -20.4,-15.509 -33.951,-15.509c-13.551,0 -25.708,6.012 -33.951,15.509l-0.004,0.004c-6.843,7.886 -10.986,18.176 -10.986,29.427c0,1.918 0.12,3.809 0.353,5.664l0.001,0.006c0.589,4.679 1.9,9.135 3.817,13.253c5.948,12.776 17.723,22.302 31.903,25.143c2.867,0.574 5.832,0.875 8.866,0.875c3.035,0 6,-0.301 8.866,-0.875c14.18,-2.84 25.955,-12.367 31.903,-25.143c1.917,-4.118 3.228,-8.574 3.817,-13.253l0.001,-0.006c0.233,-1.855 0.353,-3.746 0.353,-5.664c0,-11.25 -4.143,-21.541 -10.986,-29.427l-0.004,-0.004Z"/><path d="M255.118,114.97c18.909,0 34.262,-15.352 34.262,-34.262c0,-18.909 -15.352,-34.262 -34.262,-34.262c-14.945,0 -27.669,9.588 -32.347,22.944c7.422,9.678 11.834,21.783 11.834,34.91c0,1.261 -0.041,2.512 -0.121,3.753c5.741,4.341 12.889,6.916 20.633,6.916Z"/></g></svg>