<?xml version="1.0" encoding="UTF-8" standalone="no"?><!DOCTYPE svg PUBLIC "-//W3C//DTD SVG 1.1//EN" "http://www.w3.org/Graphics/SVG/1.1/DTD/svg11.dtd"><svg width="100%" height="100%" viewBox="0 0 355 296" version="1.1" xmlns="http://www.w3.org/2000/svg" xmlns:xlink="http://www.w3.org/1999/xlink" xml:space="preserve" xmlns:serif="http://www.serif.com/" style="fill-rule:evenodd;clip-rule:evenodd;stroke-linejoin:round;stroke-miterlimit:2;"><g><path d="M211.498,77.145c-8.247,-9.754 -20.571,-15.955 -34.332,-15.955c-13.761,0 -26.085,6.2 -34.332,15.955l-0.004,0.005c-6.615,7.826 -10.604,17.941 -10.604,28.981c0,2.34 0.179,4.638 0.524,6.882l0.001,0.006c0.746,4.847 2.269,9.439 4.437,13.646c6.034,11.71 17.06,20.438 30.259,23.351c3.13,0.691 6.383,1.055 9.72,1.055c3.337,0 6.589,-0.364 9.72,-1.055c13.199,-2.914 24.225,-11.641 30.259,-23.351c2.168,-4.207 3.691,-8.799 4.437,-13.646l0.001,-0.006c0.345,-2.244 0.524,-4.543 0.524,-6.882c0,-11.04 -3.989,-21.155 -10.604,-28.981l-0.004,-0.005Z"/><path d="M96.402,202.609c-9.434,16.559 -11.277,34 -11.549,42.787l184.625,0c-0.271,-8.788 -2.115,-26.229 -11.549,-42.787l-0.003,-0.006c-10.75,-18.866 -31.534,-36.298 -70.986,-38.737l-0.007,-0c-3.139,-0.194 -6.394,-0.294 -9.768,-0.294c-3.374,0 -6.629,0.1 -9.768,0.294l-0.007,0c-39.452,2.439 -60.236,19.872 -70.986,38.737l-0.003,0.006Z"/><path d="M131.066,71.874c-4.956,-12.86 -17.438,-21.994 -32.036,-21.994c-18.94,0 -34.317,15.377 -34.317,34.317c0,18.94 15.377,34.317 34.317,34.317c7.878,0 15.139,-2.66 20.933,-7.131c-0.157,-1.73 -0.238,-3.482 -0.238,-5.253c0,-12.833 4.218,-24.69 11.341,-34.257Z"/><path d="M99.029,131.014c-23.212,0 -39.059,6.029 -49.787,14.747c-18.276,14.85 -21.559,37.079 -22.041,47.504l60.223,-0c10.543,-16.86 28.278,-32.576 58.304,-39.065c-7.548,-4.948 -13.863,-11.626 -18.377,-19.468c-7.959,-2.365 -17.321,-3.718 -28.322,-3.718Z"/><path d="M255.301,118.514c18.94,0 34.317,-15.377 34.317,-34.317c0,-18.94 -15.377,-34.317 -34.317,-34.317c-14.598,0 -27.081,9.134 -32.036,21.994c7.123,9.567 11.341,21.424 11.341,34.257c0,1.771 -0.08,3.523 -0.238,5.253c5.795,4.47 13.056,7.131 20.933,7.131Z"/><path d="M266.906,193.265l60.224,0c-0.482,-10.425 -3.765,-32.654 -22.041,-47.504c-10.728,-8.717 -26.574,-14.747 -49.787,-14.747c-11.001,0 -20.362,1.352 -28.322,3.718c-4.515,7.843 -10.829,14.52 -18.377,19.468c30.026,6.489 47.761,22.205 58.304,39.065Z"/></g></svg>