<?xml version="1.0" encoding="UTF-8" standalone="no"?><!DOCTYPE svg PUBLIC "-//W3C//DTD SVG 1.1//EN" "http://www.w3.org/Graphics/SVG/1.1/DTD/svg11.dtd"><svg width="100%" height="100%" viewBox="0 0 296 296" version="1.1" xmlns="http://www.w3.org/2000/svg" xmlns:xlink="http://www.w3.org/1999/xlink" xml:space="preserve" xmlns:serif="http://www.serif.com/" style="fill-rule:evenodd;clip-rule:evenodd;stroke-linejoin:round;stroke-miterlimit:2;"><g><path d="M139.304,146.223l-4.365,0c-4.599,0 -8.333,-3.734 -8.333,-8.333c-0,-4.599 3.734,-8.333 8.333,-8.333l12.699,0c4.599,0 8.333,3.734 8.333,8.333l0,39.903l4.365,0c4.599,-0 8.333,3.734 8.333,8.333c0,4.599 -3.734,8.333 -8.333,8.333l-25.397,0c-4.599,-0 -8.333,-3.734 -8.333,-8.333c0,-4.599 3.734,-8.333 8.333,-8.333l4.365,0l0,-31.569Z"/><circle cx="147.638" cy="111.369" r="10.553"/></g></svg>