<?xml version="1.0" encoding="UTF-8" standalone="no"?><!DOCTYPE svg PUBLIC "-//W3C//DTD SVG 1.1//EN" "http://www.w3.org/Graphics/SVG/1.1/DTD/svg11.dtd"><svg width="100%" height="100%" viewBox="0 0 296 296" version="1.1" xmlns="http://www.w3.org/2000/svg" xmlns:xlink="http://www.w3.org/1999/xlink" xml:space="preserve" xmlns:serif="http://www.serif.com/" style="fill-rule:evenodd;clip-rule:evenodd;stroke-linejoin:round;stroke-miterlimit:2;"><g><path d="M158.429,220.288l50.876,-80.641c7.019,-11.186 11.077,-24.414 11.077,-38.582c0,-40.149 -32.596,-72.745 -72.745,-72.745c-40.149,0 -72.745,32.596 -72.745,72.745c0,14.168 4.058,27.396 11.077,38.582l50.876,80.641l10.792,17.106l10.792,-17.106Zm-10.792,-161.594c23.386,0 42.372,18.986 42.372,42.372c0,23.386 -18.986,42.372 -42.372,42.372c-23.386,0 -42.372,-18.986 -42.372,-42.372c0,-23.386 18.986,-42.372 42.372,-42.372Z"/><path d="M128.112,229.872l-54.066,0l-18.628,37.083l184.44,-0l-18.628,-37.083l-54.068,-0l-14.239,22.57c-1.145,1.815 -3.14,2.915 -5.286,2.915c-2.146,0 -4.141,-1.101 -5.286,-2.915l-14.239,-22.57Z"/></g></svg>