<?xml version="1.0" encoding="UTF-8" standalone="no"?><!DOCTYPE svg PUBLIC "-//W3C//DTD SVG 1.1//EN" "http://www.w3.org/Graphics/SVG/1.1/DTD/svg11.dtd"><svg width="100%" height="100%" viewBox="0 0 296 296" version="1.1" xmlns="http://www.w3.org/2000/svg" xmlns:xlink="http://www.w3.org/1999/xlink" xml:space="preserve" xmlns:serif="http://www.serif.com/" style="fill-rule:evenodd;clip-rule:evenodd;stroke-linejoin:round;stroke-miterlimit:2;"><g><path d="M120.948,177.984c-58.463,11.582 -65.088,62.151 -65.623,79.399l184.626,0c-0.535,-17.248 -7.159,-67.816 -65.623,-79.399l-21.125,41.331c-1.068,2.09 -3.218,3.406 -5.565,3.406c-2.347,-0 -4.497,-1.315 -5.565,-3.406l-21.125,-41.331Z"/><path d="M108.654,99.301c-3.789,6.586 -5.956,14.222 -5.956,22.359c0,24.803 20.137,44.94 44.94,44.94c24.803,0 44.94,-20.137 44.94,-44.94c0,-8.016 -2.103,-15.545 -5.788,-22.064c-6.819,3.809 -19.563,9.101 -37.802,9.101c-18.803,0 -33.002,-5.659 -40.334,-9.396Z"/><path d="M112.856,78.382l-0,14.438c5.366,2.94 18.326,8.811 36.132,8.811c17.459,0 28.829,-5.681 33.432,-8.54l-0,-14.709l-32.334,13.763c-1.564,0.666 -3.332,0.666 -4.896,-0l-32.334,-13.763Z"/><path d="M186.222,69.387l17.703,-7.535l-56.287,-23.959l-56.287,23.959l17.703,7.535l23.573,10.034l15.011,6.39l15.011,-6.39l23.573,-10.034Z"/></g></svg>