<?xml version="1.0" encoding="UTF-8" standalone="no"?><!DOCTYPE svg PUBLIC "-//W3C//DTD SVG 1.1//EN" "http://www.w3.org/Graphics/SVG/1.1/DTD/svg11.dtd"><svg width="100%" height="100%" viewBox="0 0 296 296" version="1.1" xmlns="http://www.w3.org/2000/svg" xmlns:xlink="http://www.w3.org/1999/xlink" xml:space="preserve" xmlns:serif="http://www.serif.com/" style="fill-rule:evenodd;clip-rule:evenodd;stroke-linejoin:round;stroke-miterlimit:2;"><g><path d="M182.392,84.817c0.005,1.542 0.472,2.705 1.148,3.582c-0.735,-1.037 -1.143,-2.279 -1.148,-3.582Z" style="fill:#ffa000;"/><path d="M112.828,75.812l-0,14.438c5.35,2.931 18.312,8.81 36.132,8.81c17.518,0 28.892,-5.722 33.432,-8.54l-0,-14.709l-32.334,13.763c-1.564,0.666 -3.332,0.666 -4.896,0l-32.334,-13.763Z"/><path d="M108.592,96.715c-3.751,6.562 -5.895,14.159 -5.895,22.252c0,24.803 20.137,44.94 44.94,44.94c24.803,0 44.94,-20.137 44.94,-44.94c0,-7.982 -2.085,-15.48 -5.74,-21.98c-6.831,3.83 -19.6,9.14 -37.878,9.14c-18.824,0 -33.036,-5.671 -40.368,-9.413Z"/><path d="M186.194,66.817l17.703,-7.535l-56.287,-23.959l-56.287,23.959l17.703,7.535l23.429,9.973l15.155,6.451l15.181,-6.462l23.403,-9.962Z"/><path d="M120.612,175.5c-52.419,11.103 -62.793,54.687 -64.778,68.489c11.144,4.425 44.718,15.964 91.803,15.964c47.085,0 80.659,-11.539 91.803,-15.964c-1.984,-13.801 -12.359,-57.386 -64.778,-68.488l-21.414,43.661c-1.05,2.141 -3.227,3.498 -5.611,3.498c-2.385,-0 -4.561,-1.357 -5.611,-3.498l-21.414,-43.661Z"/></g></svg>