<?xml version="1.0" encoding="UTF-8" standalone="no"?><!DOCTYPE svg PUBLIC "-//W3C//DTD SVG 1.1//EN" "http://www.w3.org/Graphics/SVG/1.1/DTD/svg11.dtd"><svg width="100%" height="100%" viewBox="0 0 296 296" version="1.1" xmlns="http://www.w3.org/2000/svg" xmlns:xlink="http://www.w3.org/1999/xlink" xml:space="preserve" xmlns:serif="http://www.serif.com/" style="fill-rule:evenodd;clip-rule:evenodd;stroke-linejoin:round;stroke-miterlimit:2;"><g><path d="M147.638,155.284c-35.667,0 -57.676,11.959 -71.136,26.605c-15.142,16.477 -19.468,36.071 -20.672,44.517c11.14,4.424 44.716,15.966 91.808,15.966c47.092,0 80.668,-11.542 91.808,-15.966c-1.204,-8.446 -5.53,-28.04 -20.672,-44.517c-13.46,-14.646 -35.469,-26.605 -71.136,-26.605Z"/><path d="M147.638,142.784c24.803,0 44.94,-20.137 44.94,-44.94c0,-24.803 -20.137,-44.94 -44.94,-44.94c-24.803,0 -44.94,20.137 -44.94,44.94c0,24.803 20.137,44.94 44.94,44.94Z"/></g></svg>