<?xml version="1.0" encoding="UTF-8" standalone="no"?><!DOCTYPE svg PUBLIC "-//W3C//DTD SVG 1.1//EN" "http://www.w3.org/Graphics/SVG/1.1/DTD/svg11.dtd"><svg width="100%" height="100%" viewBox="0 0 296 296" version="1.1" xmlns="http://www.w3.org/2000/svg" xmlns:xlink="http://www.w3.org/1999/xlink" xml:space="preserve" xmlns:serif="http://www.serif.com/" style="fill-rule:evenodd;clip-rule:evenodd;stroke-linejoin:round;stroke-miterlimit:2;"><g><path d="M137.986,181.675c0,0.939 0.762,1.701 1.701,1.701l15.902,0c0.939,0 1.701,-0.762 1.701,-1.701l0,-18.642c0,-0.939 -0.762,-1.701 -1.701,-1.701l-15.902,0c-0.939,0 -1.701,0.762 -1.701,1.701l0,18.642Z"/><path d="M48.957,166.104l76.529,0l0,-3.071c0,-7.838 6.363,-14.201 14.201,-14.201l15.902,0c7.838,0 14.201,6.363 14.201,14.201l0,3.071l76.529,-0l0,-54.897c0,-4.58 -3.718,-8.298 -8.298,-8.298l-180.764,0c-4.58,0 -8.298,3.718 -8.298,8.298l0,54.897Z"/><path d="M246.318,178.604l-76.529,0l0,3.071c0,7.838 -6.363,14.201 -14.201,14.201l-15.902,0c-7.838,0 -14.201,-6.363 -14.201,-14.201l0,-3.071l-76.529,-0l0,46.912c0,4.58 3.718,8.298 8.298,8.298l180.764,0c4.58,0 8.298,-3.718 8.298,-8.298l0,-46.912Z"/><path d="M107.778,94.443l0,-11.921c0,-9.397 7.629,-17.026 17.026,-17.026l45.666,0c9.397,0 17.026,7.629 17.026,17.026l0,11.921m-12.5,0l0,-11.921c0,-2.498 -2.028,-4.526 -4.526,-4.526l-45.666,0c-2.498,0 -4.526,2.028 -4.526,4.526l0,11.921"/></g></svg>